<?xml version="1.0" encoding="utf-8"?>
<!-- Generator: Adobe Illustrator 21.0.0, SVG Export Plug-In . SVG Version: 6.00 Build 0)  -->
<svg version="1.1" id="Layer_1" xmlns="http://www.w3.org/2000/svg" xmlns:xlink="http://www.w3.org/1999/xlink" x="0px" y="0px"
	 viewBox="0 0 261 654.9" style="enable-background:new 0 0 261 654.9;" xml:space="preserve">
<style type="text/css">
	.st0{fill:#939EAE;}
	.st1{fill:#FFFFFF;}
</style>
<g id="Calque_3">
</g>
<g id="Calque_2">
	<path class="st0" d="M0,8.1c0,0,12.2-4.6,16-0.7s-12,2.3-16,8.7S0,8.1,0,8.1z"/>
	<path class="st0" d="M0,20.5c0,0,40.1-18.2,48.5-9.6c8-0.5,42.6,0.2,63.5,25.8c0.5,1-3.1-2.2-9.5-1.6c0.5,1.5,8.4,3.5,6.4,9.8
		c8.2,3.4,27.2,12.1,37.6,36.8c0.1,0.8-2.6-2-7-1.1c2.9,1.2,6.9,7.5,5.8,11.4c2.9,2.5,11.9,17.6,7.5,32.4c-0.5,1-0.9-3.5-4.1-5.8
		c1,1.6,3.6,10.8,0.8,14.4c-0.8-2.8-3.1-3.4-3.1-3.4s4.1,10,0.8,14.5c-1.5-2.4-5.8-7.1-8.4-8c2,2.4,5.9,12.2,2.5,16.2
		c3.6,2.9,17.9,38.2,4.5,74.1c0.7,12.7-10.8,75.7-10.2,86c-2.7-0.8-5.3-26.7-10-36.8s-4.8-37.8-4.8-39.5s6.8-39.5,2.5-50.5
		s-15.5-29.2-37.2-26.2c-3.2-2,0-6.2,3.2-7c0.5-0.5-29.8-1-46.5,16.2c-2.2,0.5-8.5-1.8-12.8,2.2c-3.5,2-6-2.5-15,3.5
		c-10,2-15-0.2-15-0.2V20.5z"/>
	<path class="st0" d="M0,243.9c0,0,13.7,0.8,20.3,0c5-4,27.2-26.7,91.5-9.7c9.1,0.1,9.8,3.3,14.2,1.9s-0.9,38.4-0.9,38.4
		s-5.8,41.7-47.1,51.2c-11.7,1.8-28.3-3.5-35.5-8.2s-20.5-9.9-27.3-47.2c-2.2-5.3-3.3-8.2-3-13.3c-4.3-0.2-8.8-1.2-12.2-0.7
		C-3.3,256.9,0,243.9,0,243.9z"/>
	<path class="st1" d="M26.3,253.9c0,0,8.3-21.7,44.3-18.7c22.8,1.8,50.8,4,44.8,47.2c-3.7,11.8-10.3,33.2-44.2,37.2
		c-11.3-0.7-40.8-3.5-46.8-46.2C23.3,260.6,24.7,261.4,26.3,253.9z"/>
	<path class="st0" d="M0,554.6v-28c0,0,25,3,95.3-108c24.7-15.3,72.3-1.7,73,35.7c7.3,16.3,71.6,36,92.6,43
		c10.7,16-27.3,157.1-261,157.7"/>
</g>
</svg>
